 <svg height="25" viewBox="0 0 119 25" width="119"><path d="m48.456 8.672h3.936c.4906691 0 .9466646.05866608 1.368.176s.7839985.29066552 1.088.52.5439991.52266488.72.88c.1760009.3573351.264.7759976.264 1.256 0 .6506699-.1813315 1.1813313-.544 1.592s-.832.711999-1.408.904v.032c.341335.0213334.6613318.1093326.96.264s.5573322.3573321.776.608.3919994.5413317.52.872.192.6879981.192 1.072c0 .5120026-.103999.9626647-.312 1.352s-.4933315.717332-.856.984-.7839976.4693326-1.264.608-.9973306.208-1.552.208h-3.888zm1.536 4.704h2.096c.2880014 0 .5599987-.029333.816-.088s.479999-.1573326.672-.296.3439994-.3146656.456-.528.168-.4746651.168-.784c0-.4480022-.1439986-.8373317-.432-1.168s-.7413302-.496-1.36-.496h-2.416zm0 5.28h2.256c.2346678 0 .4933319-.0239998.776-.072s.5466654-.1439993.792-.288.4533325-.3386654.624-.584.256-.5706646.256-.976c0-.6720034-.2186645-1.1759983-.656-1.512s-1.0293296-.504-1.776-.504h-2.272zm12.096-9.984h1.392l4.848 11.328h-1.792l-1.136-2.8h-5.392l-1.12 2.8h-1.792zm2.752 7.184-2.112-5.2h-.032l-2.144 5.2zm4.96-7.184h3.984c.725337 0 1.3226643.09866568 1.792.296s.8399986.44799848 1.112.752c.2720014.3040015.4613328.6453314.568 1.024s.16.7439982.16 1.096c0 .3626685-.0639994.7119983-.192 1.048s-.3119988.6399986-.552.912-.5333316.5013324-.88.688-.7333312.3013331-1.16.344l3.216 5.168h-1.92l-2.88-4.992h-1.712v4.992h-1.536zm1.536 4.992h2.016c.2986682 0 .5946652-.0239998.888-.072s.5546655-.1359994.784-.264.4133326-.312.552-.552c.1386674-.2400012.208-.5519981.208-.936s-.0693326-.6959988-.208-.936-.3226655-.4239994-.552-.552-.4906652-.2159998-.784-.264-.5893318-.072-.888-.072h-2.016zm17.888 0v5.584c-.2773347.1706675-.5919982.3199994-.944.448s-.7173314.2373329-1.096.328-.7626647.1573331-1.152.2-.754665.064-1.096.064c-.9600048 0-1.8159962-.1599984-2.568-.48s-1.3866641-.7519973-1.904-1.296-.9119986-1.1759964-1.184-1.896-.408-1.479996-.408-2.28c0-.8426709.1466652-1.626663.44-2.352s.6986641-1.354664 1.216-1.888 1.138663-.95199848 1.864-1.256 1.5199957-.456 2.384-.456c1.0453386 0 1.8986634.13066536 2.56.392s1.2159978.62133104 1.664 1.08l-1.088 1.168c-.4693357-.4480022-.9653307-.7599991-1.488-.936-.5226693-.17600088-1.0719971-.264-1.648-.264-.6506699 0-1.2373307.1199988-1.76.36s-.9706648.5626646-1.344.968-.6613323.8826639-.864 1.432-.304 1.1333302-.304 1.752c0 .6400032.1119989 1.2346639.336 1.784s.5333314 1.0266646.928 1.432.858664.7226655 1.392.952 1.1146635.344 1.744.344c.5440027 0 1.0586642-.0506662 1.544-.152s.898665-.247999 1.24-.44v-3.152h-2.512v-1.44zm2.8-4.992h7.312v1.44h-5.776v3.376h5.376v1.44h-5.376v3.632h6.064v1.44h-7.6zm14.176 0h2.496v11.328h-2.496zm6.96 2.208h-3.232v-2.208h8.96v2.208h-3.232v9.12h-2.496zm-113.16 8.7643411v-7.8261593l7.16326531 3.9271547-.04374838 7.8910271zm18.4032906-19.6443411 7.0660972 4.0375986-17.59053725 10.1442196-7.08293218-4.0489461zm-2.8726784 21.0079775v-7.8261593l7.1632654 3.9271547-.0433263 7.8910271zm.7959184-9.5110488 17.6076726-10.13329234 7.0657968 4.03759861-17.5899955 10.14421953z"></path></svg>